<?xml version="1.0" encoding="UTF-8"?>
<svg version="1.1" xmlns="http://www.w3.org/2000/svg" width="3511" height="3512">
<path d="M0 0 C34.52625 -0.061875 69.0525 -0.12375 104.625 -0.1875 C115.49260254 -0.21481201 126.36020508 -0.24212402 137.55712891 -0.27026367 C150.91479492 -0.28381348 150.91479492 -0.28381348 157.18490601 -0.28633118 C161.52732014 -0.28910552 165.8696222 -0.3002649 170.21200562 -0.31672668 C175.77757861 -0.33754097 181.34299227 -0.34343033 186.90860057 -0.33921683 C188.93454852 -0.34009587 190.96050294 -0.34590285 192.98641706 -0.35764539 C217.9626281 -0.49550494 243.13000756 2.46880073 266 13 C266.62116699 13.28327148 267.24233398 13.56654297 267.88232422 13.85839844 C291.47049619 24.85932378 307.97446478 44.82647313 317.55859375 68.77734375 C326.36024016 93.24957724 328.43064222 124.08965815 317.42578125 148.14453125 C316.95527344 149.08683594 316.48476563 150.02914063 316 151 C315.51917969 151.97324219 315.03835938 152.94648437 314.54296875 153.94921875 C303.6110769 174.29690066 285.1555371 186.04862353 265 196 C267.78535551 197.85690367 270.44005359 199.0067443 273.54663086 200.20678711 C300.18717629 210.55305988 321.85844964 228.51192737 333.8125 254.75 C344.57244415 279.58251401 345.18591109 309.32913591 335.50390625 334.53125 C325.64611471 357.26818218 309.95435947 375.75052748 289 389 C288.09241943 389.57741943 288.09241943 389.57741943 287.16650391 390.16650391 C272.32150265 399.44025895 256.19645465 405.21959214 239.25 409.375 C238.28199463 409.61371826 237.31398926 409.85243652 236.31665039 410.09838867 C220.53924245 413.73831633 204.9091531 414.28933738 188.79272461 414.22705078 C186.68807005 414.22643662 184.58341509 414.22670764 182.47876072 414.2277813 C176.89397965 414.22822879 171.30928606 414.21672265 165.72452545 414.20256042 C160.46450048 414.19108475 155.20449569 414.19062955 149.94445801 414.18920898 C134.60879397 414.17875648 119.27314585 414.15083394 103.9375 414.125 C69.638125 414.08375 35.33875 414.0425 0 414 C0 277.38 0 140.76 0 0 Z M152.84765625 75.96875 C151.16005188 76.23413574 151.16005188 76.23413574 149.43835449 76.50488281 C145.31105965 77.15733138 141.18694519 77.82977335 137.0625 78.5 C123.1715625 80.7275 123.1715625 80.7275 109 83 C109 113.69 109 144.38 109 176 C165.44849176 171.95361997 165.44849176 171.95361997 214.78515625 143.58203125 C216.34580996 141.1087594 217.70746056 138.62236368 219 136 C219.3403125 135.33871094 219.680625 134.67742187 220.03125 133.99609375 C224.35434154 123.76877998 223.24080629 109.70759806 219.26171875 99.61328125 C213.89640906 88.50061196 206.48988206 81.54438533 195 77 C181.04610627 72.46362362 167.11260609 73.6107293 152.84765625 75.96875 Z M154.24804688 238.98925781 C149.37771767 240.15592014 144.49357981 241.26033454 139.609375 242.3671875 C132.65124631 243.94923287 125.69377656 245.53396208 118.7421875 247.14453125 C117.9883075 247.31721527 117.23442749 247.48989929 116.45770264 247.66781616 C112.62738475 248.53610396 112.62738475 248.53610396 109 250 C109 280.03 109 310.06 109 341 C123.52747378 337.94158447 138.01415242 334.79713983 152.48022461 331.47363281 C154.95607056 330.90688665 157.43297062 330.34472624 159.91088867 329.78710938 C198.47516129 321.1901987 198.47516129 321.1901987 227.375 295.67578125 C233.35464943 285.82948352 234.26367842 274.82169435 231.81640625 263.71484375 C228.75788208 253.54415333 223.87940658 245.37420909 214.6171875 240.05859375 C194.9584116 229.70521269 175.03371336 234.00218179 154.24804688 238.98925781 Z " fill="#312E87" transform="translate(667,1769)"/>
<path d="M0 0 C35.97 0 71.94 0 109 0 C109 60.39 109 120.78 109 183 C140.185 175.08 140.185 175.08 172 167 C184.33012721 163.93489634 196.65987068 160.87212876 209.00012207 157.84869385 C213.54805616 156.73385482 218.09516034 155.61563538 222.64236641 154.49783134 C226.26195085 153.60807321 229.88163621 152.71873489 233.50167847 151.83084106 C239.49661728 150.3596851 245.48965454 148.88196588 251.47509766 147.37255859 C252.42282547 147.13361374 253.37055328 146.89466888 254.34700012 146.64848328 C256.04409392 146.21926607 257.74066485 145.78797323 259.43656921 145.3540802 C264.78322853 144 264.78322853 144 267 144 C267 96.48 267 48.96 267 0 C302.97 0 338.94 0 376 0 C376 136.62 376 273.24 376 414 C340.03 414 304.06 414 267 414 C267 352.29 267 290.58 267 227 C243.57 232.94 220.14 238.88 196 245 C181.28293338 248.67192732 166.5658766 252.34048094 151.83862305 255.97076416 C148.13634628 256.88440042 144.43493237 257.80151011 140.73346996 258.7184391 C137.10958885 259.61565542 133.48517673 260.51071029 129.86058998 261.40507126 C128.16787962 261.82303148 126.4753387 262.24167859 124.78297997 262.66106033 C122.4902231 263.22891283 120.19676337 263.79382916 117.90307617 264.35791016 C117.22699814 264.52599686 116.5509201 264.69408356 115.85435486 264.86726379 C111.22862736 266 111.22862736 266 109 266 C109 314.84 109 363.68 109 414 C73.03 414 37.06 414 0 414 C0 277.38 0 140.76 0 0 Z " fill="#312E87" transform="translate(1757,1769)"/>
<path d="M0 0 C0.99066656 -0.00143572 1.98133312 -0.00287144 3.00201988 -0.00435066 C18.09009039 0.0005018 32.64105738 1.03504055 47.4140625 4.3203125 C48.75621826 4.60116699 48.75621826 4.60116699 50.12548828 4.88769531 C74.89266485 10.1376295 99.97327348 19.74093832 119.4140625 36.3203125 C119.92791504 36.74812012 120.44176758 37.17592773 120.97119141 37.61669922 C132.88970716 47.60092795 138.72843626 58.64920053 143.4140625 73.3203125 C143.62869141 73.98466309 143.84332031 74.64901367 144.06445312 75.33349609 C150.02514422 94.69628072 150.1605129 118.15404149 143.4140625 137.3203125 C143.17268555 138.0201123 142.93130859 138.71991211 142.68261719 139.44091797 C127.73012959 181.58060157 90.58969901 205.53458259 53.4140625 226.3203125 C54.33964966 226.53010742 54.33964966 226.53010742 55.28393555 226.74414062 C94.02247088 235.6510324 129.74219909 252.1125611 159.1484375 279.2421875 C161.2158413 281.13849581 163.33156343 282.95060856 165.4765625 284.7578125 C177.19016549 295.01601793 186.38625724 307.89467273 194.7265625 320.9453125 C195.21809814 321.70835693 195.70963379 322.47140137 196.21606445 323.25756836 C198.831849 327.42690572 201.07533678 331.62337658 203.08666992 336.11865234 C203.52581223 337.09651703 203.96495453 338.07438171 204.41740417 339.08187866 C204.91075005 340.18990341 204.91075005 340.18990341 205.4140625 341.3203125 C198.18874634 345.00245891 190.95705048 348.67162367 183.71683121 352.32436466 C180.35515825 354.020862 176.99586493 355.72175441 173.64160156 357.43286133 C170.40489747 359.08379213 167.16248315 360.72295203 163.91576385 362.35409355 C162.67768228 362.97868055 161.44172209 363.607491 160.20795441 364.24055672 C158.48055801 365.12600702 156.7448331 365.99515241 155.00878906 366.86352539 C153.52986176 367.6129818 153.52986176 367.6129818 152.02105713 368.37757874 C149.4140625 369.3203125 149.4140625 369.3203125 147.1762085 369.15647888 C144.1157636 367.70424896 143.17162848 364.50201434 141.7890625 361.5703125 C127.10798765 332.40650867 99.5909076 311.44923071 71.4140625 296.3203125 C70.63417969 295.8989502 69.85429688 295.47758789 69.05078125 295.04345703 C23.57231005 270.89951741 -28.06951421 265.75158689 -78.5859375 262.3203125 C-78.66702914 254.18224789 -78.44519404 246.10763304 -77.96484375 237.984375 C-77.90062729 236.86139008 -77.83641083 235.73840515 -77.77024841 234.58139038 C-77.63489762 232.23010646 -77.49783956 229.87892024 -77.35913086 227.52783203 C-77.14778348 223.93419183 -76.94365994 220.34019015 -76.74023438 216.74609375 C-76.60720075 214.45049588 -76.47375187 212.15492203 -76.33984375 209.859375 C-76.2793837 208.79055084 -76.21892365 207.72172668 -76.15663147 206.62051392 C-75.86753194 201.79199612 -75.53096378 197.07550134 -74.5859375 192.3203125 C-73.66184082 192.20026855 -72.73774414 192.08022461 -71.78564453 191.95654297 C-12.42869867 184.33909221 -12.42869867 184.33909221 39.4140625 156.3203125 C40.28160156 155.62421875 41.14914062 154.928125 42.04296875 154.2109375 C52.27237715 145.61274623 58.00538822 135.15573248 61.1640625 122.2578125 C61.94406155 113.09282365 61.83023054 105.87685811 55.87109375 98.37890625 C37.92316588 79.36313828 6.59932202 77.86416827 -17.8828125 77.1328125 C-49.58300035 76.56262273 -81.95034052 80.25961648 -113.11865234 85.97070312 C-115.64131523 86.32815941 -118.04164191 86.38193706 -120.5859375 86.3203125 C-120.97507324 88.22006836 -120.97507324 88.22006836 -121.37207031 90.15820312 C-122.57035732 95.53568965 -124.24641161 100.69833208 -126.0078125 105.9140625 C-126.51976166 107.44710022 -126.51976166 107.44710022 -127.04205322 109.0111084 C-128.13580221 112.28227102 -129.23588483 115.55126514 -130.3359375 118.8203125 C-131.02772893 120.88919416 -131.71913732 122.95820394 -132.41015625 125.02734375 C-136.93838616 138.56103169 -141.54532715 152.06733464 -146.1640625 165.5703125 C-153.34164434 186.55493124 -160.42435935 207.57102578 -167.49206543 228.59286499 C-171.08872066 239.29056312 -174.68883463 249.98709754 -178.2890625 260.68359375 C-178.64546059 261.74255167 -179.00185867 262.80150959 -179.3690567 263.89255714 C-186.88608489 286.22645822 -194.43461061 308.54962766 -202 330.8671875 C-205.88954805 342.34249209 -209.77720125 353.81788064 -213.5859375 365.3203125 C-220.41332899 366.04442978 -227.16306201 366.39236071 -234.0234375 366.3515625 C-234.75498047 366.34930664 -235.48652344 366.34705078 -236.24023438 366.34472656 C-238.02214448 366.33890333 -239.80404388 366.32993858 -241.5859375 366.3203125 C-241.58070068 367.59672607 -241.57546387 368.87313965 -241.57006836 370.18823242 C-241.55194601 374.93122657 -241.54047901 379.67421767 -241.53100586 384.41723633 C-241.5259822 386.46867386 -241.51916213 388.52010782 -241.51049805 390.5715332 C-241.49834638 393.5229582 -241.49268946 396.47433577 -241.48828125 399.42578125 C-241.48311996 400.34054733 -241.47795868 401.25531342 -241.47264099 402.19779968 C-241.47227485 406.36915442 -241.51860435 410.25410558 -242.5859375 414.3203125 C-253.93574139 415.00447721 -265.21389703 415.47329959 -276.5859375 415.3203125 C-276.57433594 416.25746094 -276.56273437 417.19460938 -276.55078125 418.16015625 C-276.47900074 427.04187332 -276.69297295 435.88437593 -277.0859375 444.7578125 C-277.53695354 454.9544948 -277.70323874 465.11510485 -277.5859375 475.3203125 C-274.57432921 473.92301252 -271.61104191 472.44338417 -268.6484375 470.9453125 C-267.79830078 470.55214844 -266.94816406 470.15898438 -266.07226562 469.75390625 C-261.47631897 467.43816054 -261.47631897 467.43816054 -258.81616211 463.25146484 C-258.52108017 460.57836965 -258.53092537 458.00944787 -258.5859375 455.3203125 C-258.48865297 452.95277453 -258.38263469 450.585585 -258.26953125 448.21875 C-258.1841906 445.71104794 -258.10221347 443.20322937 -258.0234375 440.6953125 C-257.95866211 438.75978516 -257.95866211 438.75978516 -257.89257812 436.78515625 C-257.78741602 433.63029317 -257.68527146 430.47536355 -257.5859375 427.3203125 C-226.24860652 426.65228111 -194.93072304 426.15947837 -163.5859375 426.3203125 C-163.5859375 434.2403125 -163.5859375 442.1603125 -163.5859375 450.3203125 C-165.2359375 450.87976562 -166.8859375 451.43921875 -168.5859375 452.015625 C-213.14353076 467.37704325 -257.08387875 487.93483359 -295.5859375 515.3203125 C-296.32215332 515.84302734 -297.05836914 516.36574219 -297.81689453 516.90429688 C-308.52685362 524.5545792 -318.75818849 532.56913554 -328.5859375 541.3203125 C-329.46378906 542.08730469 -330.34164063 542.85429688 -331.24609375 543.64453125 C-341.60826153 552.79148442 -351.04453459 562.44225962 -359.5859375 573.3203125 C-361.10578336 575.21693756 -362.62657079 577.1128086 -364.1484375 579.0078125 C-365.29490449 580.44480718 -366.4409891 581.88210756 -367.5859375 583.3203125 C-368.99010797 580.51197155 -368.14844891 579.28425906 -367.21264648 576.31323242 C-366.8822789 575.25198654 -366.55191132 574.19074066 -366.21153259 573.09733582 C-365.83879715 571.92697281 -365.46606171 570.7566098 -365.08203125 569.55078125 C-364.6968483 568.32172562 -364.31166534 567.09266998 -363.91481018 565.82637024 C-362.85049668 562.43156845 -361.77674568 559.03981615 -360.70129395 555.64852905 C-359.79130953 552.77473664 -358.88694763 549.89918865 -357.98267174 547.02359581 C-350.56173888 523.42598828 -343.03467507 499.86182986 -335.5013752 476.29990005 C-329.09752721 456.26815371 -322.77683285 436.21200892 -316.5234375 416.1328125 C-309.57152405 393.81072541 -302.53129661 371.51853394 -295.42385101 349.24549103 C-288.75822481 328.35559076 -282.1685938 307.44355888 -275.6484375 286.5078125 C-268.49062283 263.52459161 -261.22424978 240.57797625 -253.89183426 217.64988708 C-246.87609141 195.71061641 -239.93920414 173.74838155 -233.0859375 151.7578125 C-227.29620813 133.18137609 -221.48828523 114.61135695 -215.5859375 96.0703125 C-215.30161865 95.17633759 -215.0172998 94.28236267 -214.72436523 93.36129761 C-213.92937643 90.86289114 -213.13311612 88.36489605 -212.3359375 85.8671875 C-212.09435913 85.10978775 -211.85278076 84.352388 -211.60388184 83.57203674 C-209.92065611 78.31466556 -208.16749894 73.08396157 -206.34765625 67.87207031 C-202.8221246 56.0615393 -203.68587053 43.56589391 -208.5859375 32.3203125 C-214.12564342 22.30676812 -221.84002648 16.02659371 -231.6796875 10.484375 C-232.62328125 9.90816406 -232.62328125 9.90816406 -233.5859375 9.3203125 C-233.5859375 8.9903125 -233.5859375 8.6603125 -233.5859375 8.3203125 C-222.88082144 7.47203494 -212.18533974 6.9693158 -201.45629883 6.56420898 C-199.6749303 6.49526791 -197.89356859 6.42615057 -196.11221313 6.35687256 C-190.29759271 6.13165563 -184.4827885 5.91140609 -178.66796875 5.69140625 C-176.6390185 5.61435487 -174.6100694 5.53727293 -172.58112144 5.46016121 C-163.0114214 5.09675997 -153.44163836 4.73564699 -143.87174588 4.37734932 C-134.05219668 4.00963714 -124.23286544 3.63699961 -114.41381836 3.25610352 C-30.28387267 -0.00407317 -30.28387267 -0.00407317 0 0 Z " fill="#312E87" transform="translate(1782.5859375,1022.6796875)"/>
<path d="M0 0 C2.21878549 0.00084764 4.43757181 0.00036845 6.65635681 -0.00132751 C12.64094903 -0.00218353 18.62535858 0.01537823 24.60990858 0.03639436 C30.87857083 0.05522711 37.14723789 0.05691678 43.41592407 0.06047058 C53.92493615 0.06871688 64.43389217 0.08741869 74.94287109 0.11425781 C85.76025056 0.1418556 96.5776119 0.16306106 107.39501953 0.17578125 C108.06341541 0.17656942 108.73181128 0.17735759 109.42046158 0.17816965 C112.77408862 0.18208517 116.12771578 0.18587619 119.48134303 0.18960536 C147.23973486 0.22091062 174.99801214 0.27589849 202.75634766 0.34057617 C202.75634766 28.06057617 202.75634766 55.78057617 202.75634766 84.34057617 C140.05634766 84.34057617 77.35634766 84.34057617 12.75634766 84.34057617 C12.75634766 111.40057617 12.75634766 138.46057617 12.75634766 166.34057617 C67.20634766 166.34057617 121.65634766 166.34057617 177.75634766 166.34057617 C177.75634766 194.39057617 177.75634766 222.44057617 177.75634766 251.34057617 C123.30634766 251.34057617 68.85634766 251.34057617 12.75634766 251.34057617 C12.75634766 277.08057617 12.75634766 302.82057617 12.75634766 329.34057617 C78.75634766 329.34057617 144.75634766 329.34057617 212.75634766 329.34057617 C212.75634766 357.39057617 212.75634766 385.44057617 212.75634766 414.34057617 C182.96369851 414.42890504 153.171122 414.50270489 123.37837714 414.54483749 C119.85397646 414.54983978 116.32957605 414.55501713 112.80517578 414.56030273 C112.10358766 414.56135198 111.40199954 414.56240122 110.67915118 414.56348225 C99.34762937 414.58084539 88.01618947 414.61236026 76.68471611 414.64918736 C65.04099444 414.68671114 53.39732028 414.70853705 41.75354099 414.71693015 C35.22036785 414.72212971 28.68737994 414.73428927 22.15426636 414.7634964 C15.9950462 414.79080682 9.83608618 414.79898967 3.67681122 414.7930069 C1.42593722 414.79410017 -0.8249462 414.80196015 -3.07576752 414.81739807 C-29.65727953 414.9906501 -52.35033449 408.63912637 -72.05615234 390.02807617 C-88.61541186 372.51465858 -96.4052553 350.48620255 -96.38409424 326.61560059 C-96.38706536 325.55833063 -96.39003648 324.50106067 -96.39309764 323.41175222 C-96.40174588 319.88085731 -96.40328961 316.34999645 -96.40478516 312.8190918 C-96.40941612 310.28232756 -96.41444116 307.74556401 -96.41983032 305.20880127 C-96.43293065 298.32412248 -96.43943213 291.43945483 -96.44384098 284.5547657 C-96.44661077 280.24892683 -96.45084948 275.94309018 -96.45534515 271.63725281 C-96.4675332 259.69588614 -96.47783294 247.75452125 -96.48122025 235.8131485 C-96.48143981 235.04987553 -96.48165938 234.28660257 -96.4818856 233.50020012 C-96.48210387 232.7351858 -96.48232215 231.97017147 -96.48254704 231.18197489 C-96.4829905 229.6319774 -96.48343706 228.08197991 -96.48388672 226.53198242 C-96.48410815 225.76314356 -96.48432958 224.9943047 -96.48455772 224.20216769 C-96.48850131 211.75892826 -96.505944 199.31574754 -96.52924624 186.87253076 C-96.55302348 174.07141744 -96.56542501 161.27033349 -96.56658816 148.46919775 C-96.56750143 141.29232424 -96.57316524 134.11552723 -96.59140778 126.93867493 C-96.60852315 120.18184401 -96.61001403 113.42518227 -96.60126877 106.66832733 C-96.60050166 104.19814922 -96.60479771 101.72796314 -96.61472702 99.25780487 C-96.7270333 69.5602861 -91.34714325 44.98623627 -69.90380859 22.93432617 C-49.80031424 3.90605924 -26.49952284 -0.14265865 0 0 Z " fill="#312E87" transform="translate(2281.24365234375,1768.659423828125)"/>
<path d="M0 0 C2.2190804 0.00113063 4.43816229 0.00049042 6.65724182 -0.00177002 C12.63351031 -0.00290968 18.60945249 0.02047777 24.58564568 0.04852581 C30.84895005 0.07366503 37.11226331 0.07589129 43.37561035 0.08062744 C53.87269577 0.09161577 64.36967055 0.11653798 74.86669922 0.15234375 C85.67040421 0.18915689 96.47407684 0.21742286 107.27783203 0.234375 C108.27963767 0.23595134 108.27963767 0.23595134 109.30168182 0.23755953 C112.6527675 0.24278033 116.0038534 0.247835 119.35493946 0.25280714 C147.07982679 0.29452848 174.80450989 0.36783487 202.52929688 0.45410156 C202.52929688 28.17410156 202.52929688 55.89410156 202.52929688 84.45410156 C139.82929687 84.45410156 77.12929687 84.45410156 12.52929688 84.45410156 C12.52929688 111.51410156 12.52929688 138.57410156 12.52929688 166.45410156 C67.30929687 166.45410156 122.08929687 166.45410156 178.52929688 166.45410156 C178.52929688 194.78939561 178.36232765 223.13105532 177.52929688 251.45410156 C123.07929687 251.45410156 68.62929687 251.45410156 12.52929688 251.45410156 C12.52929688 277.19410156 12.52929688 302.93410156 12.52929688 329.45410156 C78.85929687 329.45410156 145.18929688 329.45410156 213.52929688 329.45410156 C213.52929688 357.50410156 213.52929688 385.55410156 213.52929688 414.45410156 C183.66032322 414.56456751 153.79146313 414.65679589 123.92234008 414.70942821 C120.3867843 414.71568088 116.85122896 414.72215258 113.31567383 414.72875977 C112.61188203 414.73007132 111.90809022 414.73138287 111.1829714 414.73273417 C99.82435247 414.75442244 88.46586157 414.79380714 77.1073183 414.83986554 C65.43081641 414.8868143 53.75438104 414.91443561 42.07778865 414.92454404 C35.52826554 414.93103603 28.97903166 414.94618687 22.42960167 414.98275185 C16.25145618 415.01696101 10.07371614 415.02710451 3.89548492 415.01963997 C1.6410253 415.02100344 -0.61344941 415.03078575 -2.86782646 415.05012894 C-30.68169992 415.27685683 -52.26562533 408.37115472 -72.53320312 388.82910156 C-90.81735012 370.54208196 -95.83399577 347.76273305 -95.88839722 322.89343262 C-95.88416019 320.43994085 -95.87960243 317.98644962 -95.87475586 315.53295898 C-95.88046559 312.9181133 -95.88743217 310.3032701 -95.89555359 307.68843079 C-95.91265834 301.35057808 -95.91359896 295.01282487 -95.90834069 288.67495509 C-95.90428181 283.51762562 -95.90576281 278.36032531 -95.91108894 273.20299721 C-95.91183737 272.46600554 -95.91258579 271.72901388 -95.91335689 270.96968913 C-95.91488854 269.47197204 -95.91642689 267.97425495 -95.91797186 266.47653786 C-95.93166701 252.46387155 -95.92628047 238.45126123 -95.91478664 224.43859623 C-95.90485941 211.65365931 -95.91779142 198.86886722 -95.94172084 186.08395263 C-95.96617611 172.91763783 -95.97570385 159.7513903 -95.96906811 146.58505327 C-95.96558986 139.20869472 -95.96771496 131.83244741 -95.98531914 124.45610619 C-96.0016782 117.51611243 -95.99675999 110.57639813 -95.97801399 103.63641167 C-95.97434611 101.10053813 -95.97738351 98.5646439 -95.98789978 96.02878952 C-96.05109709 79.51950556 -95.88658626 62.94519651 -87.72070312 48.07910156 C-87.37563721 47.42466064 -87.03057129 46.77021973 -86.67504883 46.09594727 C-75.20513386 24.87725554 -57.96807742 10.77605459 -35.16254425 3.38144302 C-23.39323582 0.06034096 -12.16758868 -0.0876526 0 0 Z " fill="#312E87" transform="translate(1143.470703125,1768.5458984375)"/>
<path d="M0 0 C2 2 2 2 2.5625 4.9375 C2.30446561 13.19460051 -5.15892927 20.7247347 -10.83203125 26.1015625 C-15.52317114 30.20947959 -20.45560537 34.02381172 -25.37890625 37.84765625 C-26.45978516 38.72744141 -26.45978516 38.72744141 -27.5625 39.625 C-28.20316406 40.13289063 -28.84382813 40.64078125 -29.50390625 41.1640625 C-32.74888646 45.1461531 -32.14852415 51.10027894 -32.24609375 56.0234375 C-32.27734882 57.38103145 -32.30902073 58.73861585 -32.34106445 60.09619141 C-32.35642242 60.79625305 -32.3717804 61.4963147 -32.38760376 62.21759033 C-33.1522584 95.27966699 -33.1522584 95.27966699 -39 103 C-41.5625 105.4375 -41.5625 105.4375 -44 107 C-44.99 106.67 -45.98 106.34 -47 106 C-47.77836609 104.3611908 -47.77836609 104.3611908 -48.3503418 102.21459961 C-48.57034348 101.41384506 -48.79034515 100.61309052 -49.01701355 99.78807068 C-49.35470512 98.48338585 -49.35470512 98.48338585 -49.69921875 97.15234375 C-49.9391304 96.2659169 -50.17904205 95.37949005 -50.42622375 94.46620178 C-51.19189681 91.62634314 -51.93984183 88.78214877 -52.6875 85.9375 C-53.20261775 84.01466328 -53.71887917 82.09213256 -54.23632812 80.16992188 C-55.50419732 75.45006659 -56.756184 70.72624831 -58 66 C-59.26520088 66.94688112 -60.53011962 67.89413923 -61.79492188 68.84155273 C-62.49935425 69.36901596 -63.20378662 69.89647919 -63.92956543 70.43992615 C-66.81373282 72.61314823 -69.66214895 74.82930471 -72.5 77.0625 C-73.09039063 77.5258374 -73.68078125 77.9891748 -74.2890625 78.46655273 C-78.22372462 81.56623099 -82.10908989 84.72092103 -85.97802734 87.90209961 C-93.16196518 93.80139461 -100.49387232 99.34454644 -108.11035156 104.66943359 C-111.6809562 107.18361903 -115.21246247 109.75211577 -118.75 112.3125 C-119.5128833 112.86252686 -120.2757666 113.41255371 -121.06176758 113.97924805 C-124.81285049 116.68492782 -128.55294223 119.40334823 -132.26953125 122.15625 C-143.85617888 130.7000602 -155.87660358 138.47018215 -168.05517578 146.14111328 C-170.66768195 147.79022802 -173.27156248 149.45163511 -175.87109375 151.12109375 C-249.24777725 198.12667538 -330.50538644 241.52778325 -415.4375 263.125 C-475.14949249 278.34203 -542.35909718 306.4194778 -589 347 C-589.5372168 347.45890625 -590.07443359 347.9178125 -590.62792969 348.390625 C-595.45690931 352.52367238 -599.77495576 356.62417372 -603.65795898 361.66308594 C-604.28484116 362.47485291 -604.91172333 363.28661987 -605.55760193 364.12298584 C-606.03359329 364.74240051 -606.50958466 365.36181519 -607 366 C-588.03991479 365.38122148 -569.12604779 364.24670601 -550.20100594 362.97810984 C-547.80952478 362.81802143 -545.41798052 362.65891036 -543.02641296 362.50011826 C-534.62659428 361.94239471 -526.22700744 361.38132341 -517.82763672 360.81689453 C-510.08622922 360.29676736 -502.34435511 359.78404937 -494.60222578 359.27478993 C-487.87494932 358.83195363 -481.14803458 358.3838748 -474.42136431 357.9319247 C-470.43887399 357.66443022 -466.45628376 357.39882634 -462.47331238 357.13858414 C-427.92929691 354.92983307 -427.92929691 354.92983307 -393.8125 349.3125 C-392.62164795 349.05831299 -391.4307959 348.80412598 -390.20385742 348.54223633 C-343.62371504 338.3700515 -297.39874892 323.03269388 -259 294 C-258.00742188 293.25234375 -257.01484375 292.5046875 -255.9921875 291.734375 C-228.50009015 270.09336542 -211.04884813 241.47991344 -206.41015625 206.72265625 C-205.97994578 202.5595874 -206.12598566 198.71895532 -206.55859375 194.55859375 C-208.07635662 178.72275755 -208.07635662 178.72275755 -204.40332031 173.90625 C-199.62849709 169.82313815 -194.00542297 167.29233462 -188.34765625 164.65625 C-182.70240627 161.86326751 -177.42663908 158.47614587 -172.08825684 155.14355469 C-164.17794478 150.22265666 -156.19620595 145.43095734 -148 141 C-132.60504862 191.37176561 -145.69310006 254.82100095 -169.5625 300.5390625 C-172.66676222 306.31347526 -176.10886384 311.71546651 -180 317 C-180.76957031 318.05316406 -181.53914063 319.10632812 -182.33203125 320.19140625 C-188.07906886 327.91970762 -194.35995393 335.03276325 -201 342 C-201.76570313 342.83015625 -202.53140625 343.6603125 -203.3203125 344.515625 C-214.48653464 356.24962115 -228.13305166 365.71575383 -242 374 C-242.64952637 374.39251953 -243.29905273 374.78503906 -243.96826172 375.18945312 C-328.33288336 425.68418991 -443.2574753 421.54518497 -573.23681641 422.26074219 C-579.81449171 422.24933711 -586.39200521 422.25615317 -592.96967506 422.26762199 C-636.81717444 422.33233373 -680.62215934 421.38821783 -724.375 418.375 C-726.44135996 418.23887874 -728.50776692 418.10346932 -730.57421875 417.96875 C-735.38338005 417.65380559 -740.1918541 417.33006807 -745 417 C-744.23353135 412.49503167 -742.57889073 409.32436098 -740.0625 405.5625 C-739.66208496 404.95414307 -739.26166992 404.34578613 -738.84912109 403.71899414 C-737.57883905 401.80372011 -736.2929179 399.9000569 -735 398 C-734.59539551 397.40413086 -734.19079102 396.80826172 -733.77392578 396.19433594 C-727.70494906 387.32523691 -721.06307194 379.09241886 -714 371 C-713.38511719 370.28457031 -712.77023437 369.56914063 -712.13671875 368.83203125 C-702.20707784 357.33829416 -691.92901349 345.89718887 -680.36328125 336.0234375 C-678.46780134 334.40053073 -676.59572537 332.7587448 -674.73046875 331.1015625 C-665.83091495 323.23057639 -656.61783863 315.97011506 -647 309 C-646.33274902 308.51176758 -645.66549805 308.02353516 -644.97802734 307.52050781 C-628.47224532 295.4679103 -611.08825185 284.83938432 -593.10595703 275.14111328 C-591.10239545 274.05548299 -589.11107479 272.95011838 -587.12109375 271.83984375 C-568.03969082 261.31415653 -547.88862876 252.87212122 -527.5 245.25 C-526.83655579 244.99972046 -526.17311157 244.74944092 -525.48956299 244.49157715 C-502.29135702 235.78280497 -478.50010541 229.14368136 -454.46105957 223.22723389 C-447.57616872 221.53200748 -440.70169556 219.79515741 -433.828125 218.0546875 C-433.14422447 217.88158176 -432.46032394 217.70847603 -431.75569916 217.53012466 C-372.47723477 202.50206192 -314.19443389 183.15238016 -258 159 C-256.74095903 158.46174185 -255.48184255 157.92366028 -254.22265625 157.38574219 C-226.36152354 145.46510644 -198.98912007 132.56140973 -171.83190918 119.11865234 C-169.93693317 118.18167378 -168.04042081 117.24779448 -166.14221191 116.31738281 C-154.49310558 110.59826673 -143.49768998 104.3956696 -132.72982788 97.15133667 C-130.46769732 95.64571065 -128.16245881 94.21874424 -125.83984375 92.80859375 C-125.17275391 92.40189453 -124.50566406 91.99519531 -123.81835938 91.57617188 C-122.50027725 90.77820523 -121.17974867 89.98427221 -119.85742188 89.19335938 C-118.20495792 88.18141092 -116.59655697 87.09803582 -115 86 C-115 85.34 -115 84.68 -115 84 C-116.97440927 82.5368217 -118.93238871 81.19286936 -121 79.875 C-121.57234375 79.50246094 -122.1446875 79.12992188 -122.734375 78.74609375 C-124.15221782 77.82449592 -125.57560725 76.91144179 -127 76 C-126.74633789 74.11279297 -126.74633789 74.11279297 -126 72 C-120.03417716 68.25577392 -113.70174335 69.02819678 -107.0625 69.875 C-100.17715309 70.50174 -100.17715309 70.50174 -93.76171875 68.3203125 C-91.27052512 66.018961 -89.14982538 63.61932747 -87 61 C-85.56608895 59.72205822 -84.1089214 58.46951359 -82.625 57.25 C-79.72135818 54.72841631 -77.2716571 52.12352851 -75 49 C-77.45772871 47.36151419 -79.20711279 46.45377862 -81.9206543 45.48779297 C-82.70123703 45.2076535 -83.48181976 44.92751404 -84.28605652 44.6388855 C-85.12365005 44.34297516 -85.96124359 44.04706482 -86.82421875 43.7421875 C-87.68561966 43.43427277 -88.54702057 43.12635803 -89.43452454 42.80911255 C-92.18416185 41.82722723 -94.93578672 40.85105044 -97.6875 39.875 C-99.55286816 39.21001057 -101.41810421 38.54465045 -103.28320312 37.87890625 C-107.85394737 36.24829993 -112.42648227 34.62281015 -117 33 C-115.44065912 29.67831698 -114.07367012 27.90628095 -111.0625 25.75 C-110.37285156 25.22921875 -109.68320313 24.7084375 -108.97265625 24.171875 C-101.44334426 21.20368368 -91.99109082 23.18544763 -84.1015625 24.0078125 C-81.0028098 24.28853825 -77.90329973 24.55973281 -74.80371094 24.83105469 C-72.68640192 25.02684886 -70.57068447 25.2407017 -68.45703125 25.47265625 C-54.6241949 27.37691592 -54.6241949 27.37691592 -42.01217651 22.71212769 C-39.50165732 20.63074271 -37.24857993 18.35917287 -35 16 C-24.56733645 6.90627407 -14.2791036 -0.69092437 0 0 Z " fill="#1992B8" transform="translate(2148,1257)"/>
<path d="M0 0 C123.42 0 246.84 0 374 0 C374 28.05 374 56.1 374 85 C330.44 85 286.88 85 242 85 C242 193.57 242 302.14 242 414 C205.7 414 169.4 414 132 414 C132 305.43 132 196.86 132 85 C88.44 85 44.88 85 0 85 C0 56.95 0 28.9 0 0 Z " fill="#312E87" transform="translate(1369,1769)"/>
<path d="M0 0 C35.97 0 71.94 0 109 0 C109 106.26 109 212.52 109 322 C152.89 322 196.78 322 242 322 C242 352.36 242 382.72 242 414 C198.7593224 414.16121214 198.7593224 414.16121214 180.57421875 414.1953125 C168.04111143 414.21900375 155.50811204 414.24678396 142.97509766 414.30175781 C133.84545858 414.34178407 124.71590746 414.36747022 115.58618307 414.37635398 C110.75766698 414.38154213 105.92940242 414.39362718 101.10096741 414.42292023 C96.54387768 414.4503396 91.9871399 414.4583922 87.42997551 414.45243073 C85.76929236 414.45351923 84.10859579 414.46131364 82.4479847 414.4768219 C59.26945461 414.68242196 39.38032315 407.71147091 22.3125 391.4375 C6.46325115 374.81511706 -0.34309742 355.38978981 -0.24050903 332.74424744 C-0.24138226 331.30517344 -0.24313539 329.86609976 -0.24568737 328.42702776 C-0.25014189 324.49097463 -0.24218341 320.55503114 -0.23213124 316.61899197 C-0.22347162 312.36757683 -0.22641868 308.11616757 -0.22793579 303.86474609 C-0.22898305 296.50496399 -0.22272304 289.14521743 -0.21146011 281.78544426 C-0.19518657 271.14453204 -0.18999521 260.50363696 -0.18748413 249.86271364 C-0.18310994 232.59734949 -0.16980832 215.33200427 -0.15087891 198.06665039 C-0.13251297 181.29777114 -0.11835996 164.52889704 -0.10986328 147.76000977 C-0.10933783 146.72588681 -0.10881239 145.69176386 -0.10827102 144.62630384 C-0.10566089 139.43826686 -0.10313349 134.25022984 -0.10064721 129.0621928 C-0.0799233 86.04144505 -0.04305816 43.02073233 0 0 Z " fill="#312E87" transform="translate(2540,1769)"/>
<path d="M0 0 C69.82845964 0 69.82845964 0 83.80859375 13.62109375 C91.31060974 21.76499346 94.98095263 30.51240333 95.3125 41.6875 C94.8494631 52.3952284 91.1622988 61.81112927 83.3125 69.29296875 C78.33438139 72.96769482 72.60925142 75.44043867 67 78 C67.54527344 78.60585937 68.09054687 79.21171875 68.65234375 79.8359375 C80.5 93 80.5 93 82.734375 95.484375 C84.28417339 97.20518562 85.83637251 98.9238363 87.390625 100.640625 C93.97761784 107.92557735 93.97761784 107.92557735 96.9375 111.5625 C98.76474264 114.04650436 98.76474264 114.04650436 101 115 C101.11445906 114.44507653 101.22891811 113.89015306 101.34684563 113.31841373 C102.47238145 108.03859279 103.86915556 102.94961834 105.57861328 97.83178711 C105.8294014 97.06923111 106.08018951 96.30667511 106.33857727 95.52101135 C107.16168236 93.02173443 107.99093623 90.52454586 108.8203125 88.02734375 C109.40400646 86.25936411 109.98732235 84.49125962 110.57028198 82.72303772 C112.10537685 78.07035689 113.64574214 73.41943754 115.18719482 68.76885986 C116.72706465 64.11978592 118.2616913 59.46898236 119.796875 54.81835938 C125.83445222 36.53551163 131.89995583 18.26210231 138 0 C152.19 0 166.38 0 181 0 C186.125 15.375 186.125 15.375 187.88549805 20.66088867 C190.44777539 28.35402472 193.013366 36.04599015 195.59469604 43.73275757 C203.99249695 68.74130583 212.09987298 93.82982787 220 119 C208.78 119 197.56 119 186 119 C182.535 108.11 182.535 108.11 179 97 C159.695 96.505 159.695 96.505 140 96 C139.34 99.3 138.68 102.6 138 106 C137.33139289 108.38648814 136.6285267 110.76394968 135.875 113.125 C135.34519531 114.79949219 135.34519531 114.79949219 134.8046875 116.5078125 C134.53914063 117.33023438 134.27359375 118.15265625 134 119 C125.06397562 119.3258599 116.13002408 119.5738419 107.18933392 119.72537041 C103.03642726 119.79814141 98.88761164 119.89661448 94.73706055 120.05615234 C90.72310351 120.20945584 86.71305035 120.29220109 82.69639015 120.3282814 C81.1725496 120.35395029 79.64889929 120.40408978 78.12674522 120.48022079 C66.54944089 121.03568113 66.54944089 121.03568113 62.29235649 117.63647842 C59.08009291 114.30275297 56.53361214 110.59370935 54.08442307 106.67883301 C52.59017727 104.3655392 50.85967001 102.28815364 49.07421875 100.1953125 C48.50509766 99.50953125 47.93597656 98.82375 47.34960938 98.1171875 C46.80111328 97.45976562 46.25261719 96.80234375 45.6875 96.125 C44.54378203 94.75409628 43.40184225 93.38170703 42.26171875 92.0078125 C41.53408325 91.13600342 41.53408325 91.13600342 40.79174805 90.24658203 C38.11629203 86.89196338 35.57451961 83.43269282 33 80 C32.67 92.87 32.34 105.74 32 119 C21.44 119 10.88 119 0 119 C0 79.73 0 40.46 0 0 Z M32 27 C32 37.56 32 48.12 32 59 C35.9909375 59.0928125 35.9909375 59.0928125 40.0625 59.1875 C40.8862915 59.21481201 41.71008301 59.24212402 42.55883789 59.27026367 C49.19942898 59.34421589 53.7518336 57.9549273 58.875 53.5 C62.51797921 49.21414211 62.3447338 45.13082236 62.2734375 39.7265625 C61.88073034 35.81071107 60.69945694 33.83789063 58 31 C52.24159166 26.92607451 48.00137846 26.47776902 41.0625 26.75 C38.071875 26.8325 35.08125 26.915 32 27 Z M158 35 C156.427944 39.92787863 154.86151601 44.85749697 153.30029297 49.78881836 C152.76831171 51.46639318 152.23479164 53.14348082 151.69970703 54.82006836 C150.93117362 57.22904275 150.16817824 59.63971082 149.40625 62.05078125 C149.04533264 63.17592888 149.04533264 63.17592888 148.67712402 64.32380676 C147.73347017 67.32537082 147 69.8333449 147 73 C155.25 73 163.5 73 172 73 C170.33458295 67.74655143 168.66475425 62.49497279 166.98291016 57.24682617 C166.41182041 55.45993608 165.84345157 53.67217407 165.27783203 51.88354492 C164.46575169 49.31717193 163.64403319 46.7540631 162.8203125 44.19140625 C162.56814972 43.3872377 162.31598694 42.58306915 162.05618286 41.75453186 C161.4280735 39.81684043 160.72109895 37.90504219 160 36 C159.34 35.67 158.68 35.34 158 35 Z " fill="#A5953C" transform="translate(1468,2263)"/>
<path d="M0 0 C12.01995469 10.24324947 19.69549717 24.08874364 21.15234375 39.89453125 C22.34194771 58.19613059 19.01065648 75.25592796 7.0703125 89.7421875 C-5.02153573 103.31165465 -20.40524604 109.77372336 -38.37109375 111.16796875 C-55.93623561 111.68110773 -72.75990081 106.89766607 -85.84765625 94.89453125 C-97.88614227 81.76823023 -102.58928792 64.97126129 -102.1328125 47.3671875 C-100.62821098 29.04402657 -93.57334787 13.18205005 -79.59765625 1.01953125 C-56.85624784 -16.39136673 -23.11433521 -17.09002288 0 0 Z M-60.53515625 25.14453125 C-68.17001767 33.19023723 -70.32948524 43.27197149 -70.1015625 54.12109375 C-69.16826562 64.3155674 -64.85071529 71.81882257 -57.05078125 78.34765625 C-51.07035732 82.5466773 -44.04047034 83.94054506 -36.84765625 82.89453125 C-27.8379141 80.64209571 -21.3455335 76.84555822 -16.09765625 69.14453125 C-10.34011215 59.09258132 -9.07444196 47.81261161 -11.97265625 36.58203125 C-14.82838789 28.2977154 -20.34287616 22.27941483 -28.03515625 18.20703125 C-39.97376124 13.48349623 -51.35769587 16.57239273 -60.53515625 25.14453125 Z " fill="#A5953C" transform="translate(2429.84765625,2275.10546875)"/>
<path d="M0 0 C9.34633205 8.64884458 14.79853688 17.16260846 16.09375 29.9375 C11.77068146 30.1358934 7.45004654 30.28069621 3.1237793 30.37695312 C1.65390873 30.41708611 0.18435567 30.47161158 -1.28442383 30.54101562 C-13.54588001 31.10571527 -13.54588001 31.10571527 -16.92675781 28.20239258 C-18.18368317 26.15256223 -19.02930896 24.16837347 -19.90625 21.9375 C-26.12042204 15.8868588 -33.42940906 13.9375 -41.90625 13.9375 C-47.96080384 14.5081796 -53.37755279 15.64104367 -57.90625 19.9375 C-59.14910895 23.38624671 -59.14910895 23.38624671 -58.90625 26.9375 C-57.50335041 29.35583167 -56.48013029 30.66199173 -53.9453125 31.87890625 C-47.56007223 33.52171079 -41.18136118 34.50066893 -34.65625 35.375 C-17.94351571 37.62612712 -1.69047958 40.90269912 10.09375 53.9375 C15.00761282 61.29472003 15.87197988 69.25108114 15.09375 77.9375 C13.29384516 86.68163232 8.92047082 93.24533363 2.09375 98.9375 C-16.04537115 110.29584119 -38.10253203 112.78000312 -58.84765625 108.1015625 C-72.25722108 104.57460987 -84.67285397 96.78998788 -92.34375 85.125 C-95.73025517 79.00434759 -97.90625 71.96314125 -97.90625 64.9375 C-87.34625 64.9375 -76.78625 64.9375 -65.90625 64.9375 C-64.91625 67.5775 -63.92625 70.2175 -62.90625 72.9375 C-58.10975273 79.32905886 -51.59003198 81.74463315 -43.90625 82.9375 C-36.06938904 83.78183555 -27.64666348 82.9480767 -21.34375 77.875 C-18.80998785 74.45992928 -18.39524859 72.19584504 -18.90625 67.9375 C-25.03863319 60.53634787 -38.38809237 60.3046451 -47.28125 59.0625 C-62.2384917 56.80310456 -76.81514789 53.1236683 -86.69140625 40.73046875 C-91.60692789 33.47572781 -93.05168889 25.04327172 -91.4453125 16.48046875 C-88.91225526 6.78034954 -83.42633199 0.11407305 -74.90625 -5.0625 C-52.34152476 -16.95427491 -20.21714984 -16.99412595 0 0 Z " fill="#A5953C" transform="translate(2786.90625,2276.0625)"/>
<path d="M0 0 C69.82845964 0 69.82845964 0 83.80859375 13.62109375 C91.31060974 21.76499346 94.98095263 30.51240333 95.3125 41.6875 C94.8494631 52.3952284 91.1622988 61.81112927 83.3125 69.29296875 C78.33438139 72.96769482 72.60925142 75.44043867 67 78 C67.54527344 78.60585937 68.09054688 79.21171875 68.65234375 79.8359375 C89.5 103 89.5 103 91.71484375 105.46484375 C93.32693712 107.25330289 94.9446669 109.03668925 96.56640625 110.81640625 C97.39011719 111.72261719 98.21382812 112.62882812 99.0625 113.5625 C99.81660156 114.38878906 100.57070312 115.21507813 101.34765625 116.06640625 C103 118 103 118 103 119 C97.64788596 119.34915935 92.30252631 119.60138087 86.94165039 119.76904297 C85.12406926 119.83896853 83.30726225 119.93416627 81.49243164 120.05615234 C66.89315779 121.01203327 66.89315779 121.01203327 62.1647644 117.72369385 C58.85037101 114.47787411 56.4294959 110.71667865 54.07125854 106.74456787 C52.61500841 104.37303281 50.88614407 102.3028368 49.07421875 100.1953125 C48.50509766 99.50953125 47.93597656 98.82375 47.34960938 98.1171875 C46.80111328 97.45976562 46.25261719 96.80234375 45.6875 96.125 C44.54378203 94.75409628 43.40184225 93.38170703 42.26171875 92.0078125 C41.53408325 91.13600342 41.53408325 91.13600342 40.79174805 90.24658203 C38.11629203 86.89196338 35.57451961 83.43269282 33 80 C32.67 92.87 32.34 105.74 32 119 C21.44 119 10.88 119 0 119 C0 79.73 0 40.46 0 0 Z M32 27 C32 37.56 32 48.12 32 59 C35.9909375 59.0928125 35.9909375 59.0928125 40.0625 59.1875 C40.8862915 59.21481201 41.71008301 59.24212402 42.55883789 59.27026367 C49.19942898 59.34421589 53.7518336 57.9549273 58.875 53.5 C62.51797921 49.21414211 62.3447338 45.13082236 62.2734375 39.7265625 C61.88073034 35.81071107 60.69945694 33.83789063 58 31 C52.24159166 26.92607451 48.00137846 26.47776902 41.0625 26.75 C38.071875 26.8325 35.08125 26.915 32 27 Z " fill="#A5953C" transform="translate(2591,2263)"/>
<path d="M0 0 C10.56 0 21.12 0 32 0 C32.05607422 7.51394531 32.05607422 7.51394531 32.11328125 15.1796875 C32.14358862 18.36982483 32.17475447 21.55990822 32.20898438 24.75 C32.26312986 29.8036819 32.31424604 34.85725714 32.34643555 39.91113281 C32.37261324 43.98971955 32.41311549 48.06794419 32.46318626 52.14630508 C32.47975786 53.69542023 32.49133216 55.24459787 32.49761391 56.79378891 C32.52506067 73.03938086 32.52506067 73.03938086 40 87 C47.60340193 92.73296505 55.77574075 93.08104681 65 92 C71.36699497 90.40155386 75.36549482 87.55865498 79 82 C82.22353765 75.22786209 83.10810815 68.54825902 83.20532227 61.07666016 C83.21522186 60.4125412 83.22512146 59.74842224 83.23532104 59.06417847 C83.26667587 56.88917493 83.29158942 54.71414961 83.31640625 52.5390625 C83.33699831 51.02305565 83.35799535 49.50705424 83.37937927 47.99105835 C83.43436751 44.01601599 83.48387852 40.04092383 83.53222656 36.0657959 C83.59148308 31.28823951 83.65758215 26.51077343 83.72252655 21.73329163 C83.82024324 14.4889166 83.90929925 7.24448156 84 0 C94.56 0 105.12 0 116 0 C116.06805686 9.83229659 116.12297722 19.66443408 116.15543652 29.49691391 C116.17102345 34.06362482 116.19213267 38.63016478 116.22631836 43.19677734 C116.25916263 47.61235459 116.2769053 52.02776848 116.28463173 56.44345856 C116.29013062 58.11938291 116.30086722 59.79529938 116.31719017 61.47115326 C116.48607634 79.54635824 113.39539034 95.2667666 100.4140625 108.8125 C87.67807962 120.35319646 70.37767002 123.57601061 53.66796875 123.2421875 C38.15882747 122.21815474 22.75699842 118.01365712 12 106 C0.20587397 91.50534979 -0.31838469 73.63069345 -0.1953125 55.76171875 C-0.19157212 54.14362261 -0.18873001 52.52552417 -0.18673706 50.90742493 C-0.17918115 46.69399518 -0.15960404 42.48070818 -0.1373291 38.26733398 C-0.11305321 33.18766478 -0.10405131 28.10794726 -0.09242249 23.02823639 C-0.07317313 15.35205898 -0.03479514 7.67619342 0 0 Z " fill="#A5953C" transform="translate(2462,2263)"/>
<path d="M0 0 C0.83563477 0.00757324 1.67126953 0.01514648 2.53222656 0.02294922 C11.33308768 0.25779884 18.60290234 2.4455738 25.0859375 8.63671875 C31.09663809 15.66954355 32.50963194 22.65223293 32.16796875 31.8125 C30.90546684 40.24128974 25.97090859 45.78735079 19.52734375 51.03125 C17.31062825 52.6698898 15.06038745 54.14370042 12.625 55.4375 C13.92448698 58.24411604 15.35053283 60.48632498 17.375 62.8203125 C17.9009375 63.43003906 18.426875 64.03976563 18.96875 64.66796875 C19.5153125 65.29316406 20.061875 65.91835937 20.625 66.5625 C21.1715625 67.19542969 21.718125 67.82835938 22.28125 68.48046875 C24.34566833 70.86365756 26.39471884 73.20721884 28.625 75.4375 C30.50324891 73.55925109 30.01602397 70.39814724 30.1875 67.875 C30.331875 65.750625 30.47625 63.62625 30.625 61.4375 C38.215 61.4375 45.805 61.4375 53.625 61.4375 C54.21725513 85.86802392 54.21725513 85.86802392 49.625 94.4375 C53.48824227 96.75544536 55.64782239 96.72647463 60.625 97.4375 C60.625 104.6975 60.625 111.9575 60.625 119.4375 C50.03753823 119.85680542 42.513945 118.83493114 33.05078125 114.16796875 C30.68352136 113.17654596 30.68352136 113.17654596 28.703125 114.23046875 C28.09984375 114.69066406 27.4965625 115.15085937 26.875 115.625 C19.50957033 121.18109586 11.33790928 121.9702551 2.375 121.875 C1.36083008 121.86597656 0.34666016 121.85695313 -0.69824219 121.84765625 C-14.571249 121.52802217 -25.42394141 117.6812356 -35.28515625 107.45703125 C-43.13525445 97.79388826 -43.61012576 86.41880245 -42.375 74.4375 C-41.57276985 70.95639418 -40.37909043 68.37879742 -38.375 65.4375 C-37.85421875 64.66019531 -37.3334375 63.88289063 -36.796875 63.08203125 C-33.20996426 58.12983242 -29.53224824 54.70024889 -24.375 51.4375 C-25.00728516 50.08205078 -25.00728516 50.08205078 -25.65234375 48.69921875 C-26.20019531 47.51972656 -26.74804688 46.34023437 -27.3125 45.125 C-27.85777344 43.95324219 -28.40304688 42.78148438 -28.96484375 41.57421875 C-32.33113814 34.08631184 -32.72106768 25.4212335 -30.57421875 17.47265625 C-27.15736043 9.85224028 -21.28857202 4.97367341 -13.66796875 1.7734375 C-9.10435038 0.14817782 -4.8114685 -0.06108878 0 0 Z M-7.375 23.4375 C-8.76238077 26.78353597 -8.6726702 28.70536264 -7.3125 32.05078125 C-6.06518572 34.55604033 -4.76281346 37.00762591 -3.375 39.4375 C1.31684383 37.66135811 4.97094308 35.69303217 8 31.5625 C8.90030372 28.50146734 8.53028803 26.47668126 7.625 23.4375 C5.22264061 20.66554685 3.79900174 20.45614304 0.125 20.0625 C-3.54900174 20.45614304 -4.97264061 20.66554685 -7.375 23.4375 Z M-11.375 69.4375 C-12.179375 70.365625 -12.98375 71.29375 -13.8125 72.25 C-14.49119141 73.03310547 -14.49119141 73.03310547 -15.18359375 73.83203125 C-17.94278755 77.55015798 -17.98101338 82.00181873 -17.375 86.4375 C-14.62048071 91.74250012 -11.13694815 95.12228659 -5.75 97.6875 C0.9463723 99.17558273 7.32472594 99.30851096 13.625 96.4375 C11.24997169 92.05345801 8.28068294 88.70659305 4.875 85.125 C3.79720585 83.97877706 2.72037951 82.83164331 1.64453125 81.68359375 C1.12584473 81.1304248 0.6071582 80.57725586 0.07275391 80.00732422 C-2.3686615 77.36005591 -4.68031891 74.60459465 -6.97265625 71.828125 C-8.43697224 70.17047767 -8.43697224 70.17047767 -11.375 69.4375 Z " fill="#A5953C" transform="translate(2106.375,2262.5625)"/>
<path d="M0 0 C28.38 0 56.76 0 86 0 C86 8.25 86 16.5 86 25 C68.18 25 50.36 25 32 25 C32 32.59 32 40.18 32 48 C47.51 48 63.02 48 79 48 C79 56.25 79 64.5 79 73 C63.49 73 47.98 73 32 73 C32 80.26 32 87.52 32 95 C50.81 95 69.62 95 89 95 C89 102.92 89 110.84 89 119 C59.63 119 30.26 119 0 119 C0 79.73 0 40.46 0 0 Z " fill="#A5953C" transform="translate(1810,2263)"/>
<path d="M0 0 C10.23 0 20.46 0 31 0 C32.9445291 5.18541093 34.68259683 10.08832686 36.17651367 15.37817383 C36.37202316 16.06702667 36.56753265 16.75587952 36.76896667 17.46560669 C37.40543903 19.71178353 38.03690785 21.95932861 38.66796875 24.20703125 C39.11189759 25.78030118 39.55601796 27.35351707 40.00032043 28.92668152 C40.92623501 32.20821646 41.84962172 35.49044939 42.77124023 38.77319336 C43.9532038 42.9823611 45.14185137 47.18960767 46.33240795 51.39635181 C47.24881926 54.63742699 48.16154922 57.87952995 49.07317543 61.12195396 C49.51018152 62.67444652 49.94837589 64.2266051 50.38777733 65.7784214 C50.99951497 67.94084116 51.60624601 70.10460425 52.21166992 72.26879883 C52.55791916 73.49931473 52.9041684 74.72983063 53.26091003 75.99763489 C54 79 54 79 54 82 C54.66 82 55.32 82 56 82 C56.23412598 80.80487793 56.46825195 79.60975586 56.70947266 78.37841797 C58.18885922 71.74274645 60.44891778 65.3693064 62.6484375 58.9453125 C63.10720001 57.59460068 63.56557688 56.24375783 64.02359009 54.89279175 C64.98065434 52.0728951 65.94073158 49.25405069 66.90332031 46.43603516 C68.1265657 42.85489878 69.3447314 39.27206299 70.56091881 35.68852425 C71.73424106 32.23188055 72.90993508 28.77604511 74.0859375 25.3203125 C74.30477978 24.67673923 74.52362206 24.03316597 74.74909592 23.37009048 C75.38142879 21.5120823 76.01564298 19.65471471 76.64990234 17.79736328 C77.18712418 16.22258713 77.18712418 16.22258713 77.73519897 14.61599731 C79.44493541 9.72795386 81.23030647 4.8666572 83 0 C94.22 0 105.44 0 117 0 C115.01461583 7.27974196 112.95646813 14.38178973 110.515625 21.5 C110.18300659 22.47825241 109.85038818 23.45650482 109.50769043 24.46440125 C108.42527389 27.64413284 107.33781177 30.82211053 106.25 34 C105.49239074 36.22106832 104.73490539 38.44217891 103.97753906 40.66333008 C98.36213983 57.11036566 92.6677545 73.52961509 86.91113281 89.92773438 C86.61710571 90.76625443 86.32307861 91.60477448 86.0201416 92.46870422 C85.48762681 93.98665684 84.95416114 95.50427656 84.41931152 97.02140808 C81.85821992 104.32071861 79.44742177 111.65773468 77 119 C63.14 119 49.28 119 35 119 C28.02773999 96.62731259 21.17817532 74.21936634 14.37310791 51.79534912 C13.27800062 48.18778649 12.18179315 44.58055855 11.0855875 40.97332954 C10.02050309 37.46812282 8.95599646 33.96274084 7.89167595 30.45730209 C7.38829769 28.79955276 6.8847672 27.14184965 6.38107491 25.48419571 C5.68259561 23.18511229 4.98487189 20.88580089 4.28735352 18.58642578 C4.08426575 17.91844467 3.88117798 17.25046356 3.67193604 16.5622406 C3.1103745 14.70944306 2.55507466 12.85475125 2 11 C1.62282333 9.77102997 1.24564667 8.54205994 0.85704041 7.27584839 C0 4 0 4 0 0 Z " fill="#A5953C" transform="translate(1688,2263)"/>
<path d="M0 0 C35.31 0 70.62 0 107 0 C107 8.25 107 16.5 107 25 C94.79 25 82.58 25 70 25 C70 56.02 70 87.04 70 119 C59.44 119 48.88 119 38 119 C38 87.98 38 56.96 38 25 C25.46 25 12.92 25 0 25 C0 16.75 0 8.5 0 0 Z " fill="#A5953C" transform="translate(2226,2263)"/>
<path d="M0 0 C35.31 0 70.62 0 107 0 C107 8.25 107 16.5 107 25 C94.79 25 82.58 25 70 25 C70 56.02 70 87.04 70 119 C59.44 119 48.88 119 38 119 C38 87.98 38 56.96 38 25 C25.46 25 12.92 25 0 25 C0 16.75 0 8.5 0 0 Z " fill="#A5953C" transform="translate(1356,2263)"/>
<path d="M0 0 C10.56 0 21.12 0 32 0 C32 30.36 32 60.72 32 92 C50.81 92 69.62 92 89 92 C89 100.91 89 109.82 89 119 C59.63 119 30.26 119 0 119 C0 79.73 0 40.46 0 0 Z " fill="#A5953C" transform="translate(1911,2263)"/>
<path d="M0 0 C30.69 0 61.38 0 93 0 C93 12.54 93 25.08 93 38 C62.31 38 31.62 38 0 38 C0 25.46 0 12.92 0 0 Z " fill="#1690B9" transform="translate(1641,1299)"/>
<path d="M0 0 C30.69 0 61.38 0 93 0 C93 12.21 93 24.42 93 37 C62.31 37 31.62 37 0 37 C0 24.79 0 12.58 0 0 Z " fill="#1690B9" transform="translate(1563,1404)"/>
<path d="M0 0 C30.69 0 61.38 0 93 0 C93 12.21 93 24.42 93 37 C62.31 37 31.62 37 0 37 C0 24.79 0 12.58 0 0 Z " fill="#1790B9" transform="translate(1600,1352)"/>
</svg>
